<?xml version="1.0" encoding="utf-8"?>
<svg viewBox="-41.166 83.083 648.92 345.17" width="648.92" height="345.17" xmlns="http://www.w3.org/2000/svg">
  <g id="AG-SPORTS" transform="matrix(1, 0, 0, 1, -95.033066, -125.979286)">
    <g id="POLYLINE_177_">
      <rect x="53.867" y="209.062" stroke-width="6" stroke-miterlimit="10" width="648.92" height="345.17" style="fill: rgb(220, 195, 164); stroke: rgb(190, 160, 128); paint-order: fill;"/>
    </g>
    <g id="POLYLINE_176_">
      <line stroke-width="3" stroke-miterlimit="10" x1="378.327" y1="554.232" x2="378.327" y2="209.062" style="fill: none; stroke: rgb(190, 160, 128); paint-order: fill;"/>
    </g>
    <g id="POLYLINE_175_">
      <path stroke-width="3" stroke-miterlimit="10" d="M392.135,381.646 c0.002-5.459-3.326-10.479-8.314-12.666c-4.953-2.172-10.941-1.139-14.889,2.551c-3.981,3.72-5.439,9.566-3.624,14.713 c1.817,5.15,6.624,8.771,12.058,9.176c5.387,0.4,10.703-2.567,13.19-7.363C391.581,386.078,392.135,383.877,392.135,381.646z" style="fill: none; stroke: rgb(190, 160, 128); paint-order: fill;"/>
    </g>
    <g id="POLYLINE_174_">
      <path stroke-width="3" stroke-miterlimit="10" d="M419.748,381.646 c-0.049-5.316-0.997-10.633-3.035-15.56c-2.053-4.964-4.98-9.517-8.74-13.364c-3.76-3.85-8.241-6.914-13.167-9.075 c-4.907-2.153-10.207-3.247-15.553-3.411c-5.261-0.16-10.677,0.768-15.585,2.672c-4.986,1.932-9.62,4.73-13.531,8.393 c-3.926,3.68-7.125,8.061-9.395,12.941c-2.266,4.875-3.512,10.151-3.792,15.512c-0.276,5.3,0.556,10.685,2.319,15.683 c1.776,5.034,4.538,9.756,8.105,13.733c3.594,4.008,7.903,7.295,12.734,9.675c4.822,2.374,10.072,3.729,15.426,4.128 c5.291,0.393,10.693-0.322,15.729-1.977c5.035-1.656,9.807-4.288,13.834-7.742c4.075-3.496,7.49-7.707,9.967-12.478 c2.498-4.813,3.997-10.046,4.518-15.438C419.7,384.111,419.736,382.879,419.748,381.646z" style="fill: none; stroke: rgb(190, 160, 128); paint-order: fill;"/>
    </g>
    <g id="POLYLINE_173_">
      <line stroke-width="3" stroke-miterlimit="10" x1="702.787" y1="554.232" x2="702.787" y2="533.522" style="fill: none; stroke: rgb(190, 160, 128); paint-order: fill;"/>
    </g>
    <g id="POLYLINE_172_">
      <line stroke-width="3" stroke-miterlimit="10" x1="247.162" y1="554.232" x2="247.162" y2="533.522" style="fill: none; stroke: rgb(190, 160, 128); paint-order: fill;"/>
    </g>
    <g id="POLYLINE_171_">
      <line stroke-width="3" stroke-miterlimit="10" x1="509.492" y1="554.232" x2="509.492" y2="533.522" style="fill: none; stroke: rgb(190, 160, 128); paint-order: fill;"/>
    </g>
    <g id="POLYLINE_170_">
      <line stroke-width="3" stroke-miterlimit="10" x1="509.492" y1="209.062" x2="509.492" y2="229.771" style="fill: none; stroke: rgb(190, 160, 128); paint-order: fill;"/>
    </g>
    <g id="POLYLINE_169_">
      <line stroke-width="3" stroke-miterlimit="10" x1="247.162" y1="209.062" x2="247.162" y2="229.771" style="fill: none; stroke: rgb(190, 160, 128); paint-order: fill;"/>
    </g>
    <g id="POLYLINE_168_">
      <line stroke-width="3" stroke-miterlimit="10" x1="53.867" y1="554.232" x2="53.867" y2="533.522" style="fill: none; stroke: rgb(190, 160, 128); paint-order: fill;"/>
    </g>
    <g id="POLYLINE_167_">
      <path stroke-width="3" stroke-miterlimit="10" d="M702.787,229.771c-6.002,0-12.005,0-18.007,0 c-12.597,0-25.192,0-37.789,0c-11.074,0-22.148,0-33.224,0c-2.43,0-4.86,0-7.291,0c-1.076,0-2.199,0.745-3.172,1.163 c-2.035,0.874-4.062,1.76-6.071,2.694c-7.499,3.489-14.768,7.548-21.646,12.142c-7.213,4.815-14.025,10.145-20.449,15.971 c-6.437,5.837-12.363,12.259-17.775,19.052c-5.389,6.766-10.276,13.976-14.493,21.529c-4.263,7.637-7.915,15.556-10.966,23.752 c-2.948,7.919-5.192,16.11-6.84,24.396c-1.65,8.296-2.595,16.715-2.938,25.165c-0.349,8.601,0.056,17.242,1.107,25.783 c1.012,8.214,2.646,16.376,4.938,24.33c2.4,8.332,5.439,16.426,9.073,24.298c3.641,7.887,8.015,15.453,12.891,22.638 c4.858,7.159,10.297,13.958,16.249,20.239c6.018,6.35,12.492,12.199,19.391,17.577c6.665,5.196,13.792,9.81,21.173,13.92 c3.624,2.019,7.335,3.871,11.094,5.622c1.825,0.851,3.673,1.669,5.536,2.432c1,0.409,1.982,1.049,3.076,1.049 c7.557,0,15.112,0,22.668,0c12.892,0,25.783,0,38.676,0c10.111,0,20.224,0,30.336,0c1.484,0,2.969,0,4.453,0" style="fill: none; stroke: rgb(190, 160, 128); paint-order: fill;"/>
    </g>
    <g id="POLYLINE_166_">
      <path stroke-width="3" stroke-miterlimit="10" d="M53.867,229.771c2.936,0,5.871,0,8.807,0 c7.143,0,14.283,0,21.426,0c8.852,0,17.705,0,26.557,0c8.065,0,16.131,0,24.197,0c4.783,0,9.565,0,14.349,0c0.39,0,0.78,0,1.171,0 c0.042,0,0.109-0.014,0.149,0.004c0.792,0.324,1.585,0.648,2.377,0.973c2.618,1.072,5.198,2.246,7.752,3.463 c5.257,2.504,10.396,5.279,15.354,8.334c5.043,3.105,9.915,6.458,14.62,10.055c4.572,3.494,8.924,7.267,13.111,11.211 c4.208,3.964,8.154,8.197,11.926,12.574c3.764,4.368,7.295,8.977,10.532,13.748c3.249,4.791,6.313,9.712,9.041,14.82 c2.72,5.092,5.228,10.301,7.396,15.653c2.169,5.36,4.088,10.813,5.688,16.371c1.629,5.653,2.974,11.399,3.961,17.2 c0.979,5.754,1.679,11.549,2.045,17.375c0.362,5.768,0.438,11.57,0.153,17.345c-0.286,5.841-0.869,11.644-1.739,17.426 c-0.879,5.833-2.143,11.612-3.668,17.308c-1.494,5.576-3.33,11.05-5.396,16.439c-2.039,5.326-4.4,10.561-7.039,15.618 c-2.674,5.128-5.557,10.152-8.76,14.971c-3.225,4.853-6.656,9.569-10.375,14.058c-3.719,4.487-7.642,8.805-11.811,12.88 c-4.141,4.048-8.476,7.89-13.01,11.491c-4.574,3.635-9.344,7.004-14.262,10.156c-4.941,3.17-10.082,6.033-15.334,8.654 c-2.492,1.244-5.019,2.436-7.578,3.535c-1.525,0.655-3.055,1.297-4.593,1.926c-0.349,0.144-0.474,0.163-0.829,0.163 c-4.026,0-8.053,0-12.078,0c-7.709,0-15.417,0-23.125,0c-8.895,0-17.788,0-26.682,0c-7.584,0-15.168,0-22.751,0 c-3.776,0-7.552,0-11.329,0c-0.084,0-0.168,0-0.252,0" style="fill: none; stroke: rgb(190, 160, 128); paint-order: fill;"/>
    </g>
    <g id="POLYLINE_165_">
      <polyline stroke-width="3" stroke-miterlimit="10" points="702.787,340.227 572.197,340.227 &#10;&#9;&#9;&#9;572.197,423.068 702.787,423.068 &#9;&#9;" style="fill: none; stroke: rgb(190, 160, 128); paint-order: fill;"/>
    </g>
    <g id="POLYLINE_164_">
      <polyline stroke-width="3" stroke-miterlimit="10" points="702.787,326.42 572.197,326.42 &#10;&#9;&#9;&#9;572.197,436.875 702.787,436.875 &#9;&#9;" style="fill: none; stroke: rgb(190, 160, 128); paint-order: fill;"/>
    </g>
    <g id="POLYLINE_163_">
      <line stroke-width="3" stroke-miterlimit="10" x1="80.906" y1="402.357" x2="80.906" y2="360.938" style="fill: none; stroke: rgb(190, 160, 128); paint-order: fill;"/>
    </g>
    <g id="POLYLINE_162_">
      <path stroke-width="3" stroke-miterlimit="10" d="M80.906,381.646 c0.018-4.295,2.738-8.23,6.779-9.718c4.157-1.529,8.992-0.174,11.719,3.325c2.799,3.587,2.904,8.619,0.324,12.354 c-2.531,3.662-7.352,5.246-11.574,3.918c-4.193-1.32-7.142-5.262-7.246-9.652C80.907,381.798,80.906,381.723,80.906,381.646z" style="fill: none; stroke: rgb(190, 160, 128); paint-order: fill;"/>
    </g>
    <g id="POLYLINE_161_">
      <path stroke-width="3" stroke-miterlimit="10" d="M80.906,354.033c3.272,0,6.545,0,9.817,0 c2.426,0,4.823,0.227,7.181,0.812c5.155,1.277,9.939,4.066,13.551,7.969c3.656,3.953,6.094,8.873,7.023,14.178 c0.918,5.236,0.236,10.732-1.869,15.608c-2.105,4.874-5.645,9.139-10.086,12.059c-4.5,2.958-9.754,4.556-15.139,4.601 c-3.492,0.029-6.986,0.001-10.479,0.001" style="fill: none; stroke: rgb(190, 160, 128); paint-order: fill;"/>
    </g>
    <g id="POLYLINE_160_">
      <path stroke-width="3" stroke-miterlimit="10" d="M675.748,354.033c-3.272,0-6.545,0-9.818,0 c-2.424,0-4.822,0.227-7.18,0.812c-5.155,1.278-9.94,4.066-13.551,7.969c-3.658,3.955-6.09,8.873-7.023,14.178 c-0.921,5.23-0.238,10.739,1.869,15.608c2.112,4.878,5.644,9.13,10.086,12.059c4.494,2.961,9.758,4.556,15.139,4.601 c3.492,0.029,6.986,0.001,10.479,0.001" style="fill: none; stroke: rgb(190, 160, 128); paint-order: fill;"/>
    </g>
    <g id="POLYLINE_159_">
      <path stroke-width="3" stroke-miterlimit="10" d="M675.748,381.646 c0.021-4.354-2.867-8.399-6.994-9.793c-4.369-1.477-9.34,0.139-11.93,3.981c-2.527,3.751-2.309,8.782,0.51,12.313 c2.917,3.655,8.148,4.862,12.385,2.908C673.342,389.384,675.767,385.65,675.748,381.646z" style="fill: none; stroke: rgb(190, 160, 128); paint-order: fill;"/>
    </g>
    <g id="POLYLINE_158_">
      <line stroke-width="3" stroke-miterlimit="10" x1="675.748" y1="402.357" x2="675.748" y2="360.938" style="fill: none; stroke: rgb(190, 160, 128); paint-order: fill;"/>
    </g>
    <g id="POLYLINE_157_">
      <line stroke-width="3" stroke-miterlimit="10" x1="53.867" y1="457.584" x2="57.318" y2="457.584" style="fill: none; stroke: rgb(190, 160, 128); paint-order: fill;"/>
    </g>
    <g id="POLYLINE_156_">
      <line stroke-width="3" stroke-miterlimit="10" x1="53.867" y1="305.709" x2="57.318" y2="305.709" style="fill: none; stroke: rgb(190, 160, 128); paint-order: fill;"/>
    </g>
    <g id="POLYLINE_155_">
      <polyline stroke-width="3" stroke-miterlimit="10" points="53.867,340.227 184.457,340.227 &#10;&#9;&#9;&#9;184.457,423.068 53.867,423.068 &#9;&#9;" style="fill: none; stroke: rgb(190, 160, 128); paint-order: fill;"/>
    </g>
    <g id="POLYLINE_154_">
      <polyline stroke-width="3" stroke-miterlimit="10" points="53.867,326.42 184.457,326.42 &#10;&#9;&#9;&#9;184.457,436.875 53.867,436.875 &#9;&#9;" style="fill: none; stroke: rgb(190, 160, 128); paint-order: fill;"/>
    </g>
    <g id="POLYLINE_153_">
      <path stroke-width="3" stroke-miterlimit="10" d="M143.263,377.317 c0.325-2.886,0.925-5.702,1.802-8.47" style="fill: none; stroke: rgb(190, 160, 128); paint-order: fill;"/>
    </g>
    <g id="POLYLINE_152_">
      <path stroke-width="3" stroke-miterlimit="10" d="M145.064,394.447 c-0.877-2.768-1.475-5.585-1.802-8.471" style="fill: none; stroke: rgb(190, 160, 128); paint-order: fill;"/>
    </g>
    <g id="POLYLINE_151_">
      <path stroke-width="3" stroke-miterlimit="10" d="M153.676,409.363 c-1.927-2.173-3.618-4.502-5.09-7.006" style="fill: none; stroke: rgb(190, 160, 128); paint-order: fill;"/>
    </g>
    <g id="POLYLINE_150_">
      <path stroke-width="3" stroke-miterlimit="10" d="M167.609,419.486 c-2.643-1.205-5.137-2.641-7.499-4.329" style="fill: none; stroke: rgb(190, 160, 128); paint-order: fill;"/>
    </g>
    <g id="POLYLINE_149_">
      <path stroke-width="3" stroke-miterlimit="10" d="M148.586,360.938 c1.471-2.504,3.162-4.834,5.09-7.006" style="fill: none; stroke: rgb(190, 160, 128); paint-order: fill;"/>
    </g>
    <g id="POLYLINE_148_">
      <path stroke-width="3" stroke-miterlimit="10" d="M160.11,348.138 c2.364-1.688,4.856-3.126,7.499-4.33" style="fill: none; stroke: rgb(190, 160, 128); paint-order: fill;"/>
    </g>
    <g id="POLYLINE_147_">
      <path stroke-width="3" stroke-miterlimit="10" d="M175.845,341.132 c5.897-1.201,11.968-1.208,17.843,0.138c5.848,1.338,11.389,3.956,16.131,7.629c4.756,3.685,8.602,8.371,11.409,13.682 c2.809,5.312,4.296,11.256,4.608,17.238c0.31,5.92-0.794,11.906-2.997,17.395c-2.235,5.572-5.742,10.598-10.11,14.703 c-4.377,4.115-9.665,7.189-15.356,9.086c-5.694,1.895-11.8,2.461-17.754,1.78c-1.269-0.146-2.523-0.366-3.773-0.62" style="fill: none; stroke: rgb(190, 160, 128); paint-order: fill;"/>
    </g>
    <g id="POLYLINE_146_">
      <path stroke-width="3" stroke-miterlimit="10" d="M580.809,341.132 c-5.879-1.199-11.87-1.177-17.732,0.112c-5.765,1.268-11.264,3.863-15.953,7.438c-4.776,3.638-8.735,8.301-11.542,13.607 c-2.806,5.307-4.433,11.208-4.745,17.201c-0.312,5.938,0.662,11.959,2.881,17.479c2.211,5.502,5.562,10.51,9.85,14.611 c4.266,4.078,9.396,7.217,14.967,9.166c5.546,1.943,11.556,2.717,17.411,2.15c1.637-0.158,3.254-0.406,4.864-0.734" style="fill: none; stroke: rgb(190, 160, 128); paint-order: fill;"/>
    </g>
    <g id="POLYLINE_145_">
      <path stroke-width="3" stroke-miterlimit="10" d="M596.544,348.138 c-2.364-1.688-4.855-3.126-7.499-4.33" style="fill: none; stroke: rgb(190, 160, 128); paint-order: fill;"/>
    </g>
    <g id="POLYLINE_144_">
      <path stroke-width="3" stroke-miterlimit="10" d="M608.068,360.938 c-1.473-2.502-3.163-4.832-5.089-7.006" style="fill: none; stroke: rgb(190, 160, 128); paint-order: fill;"/>
    </g>
    <g id="POLYLINE_143_">
      <path stroke-width="3" stroke-miterlimit="10" d="M589.045,419.486 c2.643-1.205,5.136-2.641,7.499-4.329" style="fill: none; stroke: rgb(190, 160, 128); paint-order: fill;"/>
    </g>
    <g id="POLYLINE_142_">
      <path stroke-width="3" stroke-miterlimit="10" d="M602.979,409.363 c1.925-2.175,3.614-4.504,5.089-7.006" style="fill: none; stroke: rgb(190, 160, 128); paint-order: fill;"/>
    </g>
    <g id="POLYLINE_141_">
      <path stroke-width="3" stroke-miterlimit="10" d="M611.591,394.447 c0.873-2.77,1.473-5.584,1.8-8.471" style="fill: none; stroke: rgb(190, 160, 128); paint-order: fill;"/>
    </g>
    <g id="POLYLINE_140_">
      <path stroke-width="3" stroke-miterlimit="10" d="M613.391,377.317c-0.326-2.886-0.928-5.7-1.8-8.47 " style="fill: none; stroke: rgb(190, 160, 128); paint-order: fill;"/>
    </g>
    <g id="POLYLINE_139_">
      <line stroke-width="3" stroke-miterlimit="10" x1="702.787" y1="305.709" x2="699.335" y2="305.709" style="fill: none; stroke: rgb(190, 160, 128); paint-order: fill;"/>
    </g>
    <g id="POLYLINE_138_">
      <line stroke-width="3" stroke-miterlimit="10" x1="702.787" y1="457.584" x2="699.335" y2="457.584" style="fill: none; stroke: rgb(190, 160, 128); paint-order: fill;"/>
    </g>
    <g id="POLYLINE_137_">
      <line stroke-width="3" stroke-miterlimit="10" x1="144.188" y1="416.164" x2="144.188" y2="412.713" style="fill: none; stroke: rgb(190, 160, 128); paint-order: fill;"/>
    </g>
    <g id="POLYLINE_136_">
      <line stroke-width="3" stroke-miterlimit="10" x1="144.188" y1="347.131" x2="144.188" y2="350.582" style="fill: none; stroke: rgb(190, 160, 128); paint-order: fill;"/>
    </g>
    <g id="POLYLINE_135_">
      <line stroke-width="3" stroke-miterlimit="10" x1="612.468" y1="347.131" x2="612.468" y2="350.582" style="fill: none; stroke: rgb(190, 160, 128); paint-order: fill;"/>
    </g>
    <g id="POLYLINE_134_">
      <line stroke-width="3" stroke-miterlimit="10" x1="612.468" y1="416.164" x2="612.468" y2="412.713" style="fill: none; stroke: rgb(190, 160, 128); paint-order: fill;"/>
    </g>
    <g id="POLYLINE_133_">
      <line stroke-width="3" stroke-miterlimit="10" x1="152.24" y1="326.42" x2="152.24" y2="321.818" style="fill: none; stroke: rgb(190, 160, 128); paint-order: fill;"/>
    </g>
    <g id="POLYLINE_132_">
      <line stroke-width="3" stroke-miterlimit="10" x1="130.38" y1="326.42" x2="130.38" y2="321.818" style="fill: none; stroke: rgb(190, 160, 128); paint-order: fill;"/>
    </g>
    <g id="POLYLINE_131_">
      <rect x="102.191" y="321.818" stroke-width="3" stroke-miterlimit="10" width="6.902" height="4.602" style="fill: none; stroke: rgb(190, 160, 128); paint-order: fill;"/>
    </g>
    <g id="POLYLINE_130_">
      <rect x="102.191" y="436.875" stroke-width="3" stroke-miterlimit="10" width="6.902" height="4.602" style="fill: none; stroke: rgb(190, 160, 128); paint-order: fill;"/>
    </g>
    <g id="POLYLINE_129_">
      <line stroke-width="3" stroke-miterlimit="10" x1="130.38" y1="436.875" x2="130.38" y2="441.477" style="fill: none; stroke: rgb(190, 160, 128); paint-order: fill;"/>
    </g>
    <g id="POLYLINE_128_">
      <line stroke-width="3" stroke-miterlimit="10" x1="152.24" y1="436.875" x2="152.24" y2="441.477" style="fill: none; stroke: rgb(190, 160, 128); paint-order: fill;"/>
    </g>
    <g id="POLYLINE_127_">
      <line stroke-width="3" stroke-miterlimit="10" x1="604.413" y1="436.875" x2="604.413" y2="441.477" style="fill: none; stroke: rgb(190, 160, 128); paint-order: fill;"/>
    </g>
    <g id="POLYLINE_126_">
      <line stroke-width="3" stroke-miterlimit="10" x1="626.273" y1="436.875" x2="626.273" y2="441.477" style="fill: none; stroke: rgb(190, 160, 128); paint-order: fill;"/>
    </g>
    <g id="POLYLINE_125_">
      <rect x="647.56" y="436.875" stroke-width="3" stroke-miterlimit="10" width="6.903" height="4.602" style="fill: none; stroke: rgb(190, 160, 128); paint-order: fill;"/>
    </g>
    <g id="POLYLINE_124_">
      <rect x="647.56" y="321.818" stroke-width="3" stroke-miterlimit="10" width="6.903" height="4.602" style="fill: none; stroke: rgb(190, 160, 128); paint-order: fill;"/>
    </g>
    <g id="POLYLINE_123_">
      <line stroke-width="3" stroke-miterlimit="10" x1="626.273" y1="326.42" x2="626.273" y2="321.818" style="fill: none; stroke: rgb(190, 160, 128); paint-order: fill;"/>
    </g>
    <g id="POLYLINE_122_">
      <line stroke-width="3" stroke-miterlimit="10" x1="604.413" y1="326.42" x2="604.413" y2="321.818" style="fill: none; stroke: rgb(190, 160, 128); paint-order: fill;"/>
    </g>
    <g id="POLYLINE_121_"/>
  </g>
</svg>